TITLE ""
FILE "1Q_t_1988-2000.mp3" MP3
  TRACK 01 AUDIO
    TITLE "1Q_t_1988-2000_01"
    INDEX 01 00:00:00
  TRACK 02 AUDIO
    TITLE "1Q_t_1988-2000_02"
    INDEX 01 00:00:08
  TRACK 03 AUDIO
    TITLE "1Q_t_1988-2000_03"
    INDEX 01 00:01:22
  TRACK 04 AUDIO
    TITLE "1Q_t_1988-2000_04"
    INDEX 01 00:01:31
  TRACK 05 AUDIO
    TITLE "1Q_t_1988-2000_05"
    INDEX 01 00:04:71
  TRACK 06 AUDIO
    TITLE "1Q_t_1988-2000_06"
    INDEX 01 00:05:04
  TRACK 07 AUDIO
    TITLE "1Q_t_1988-2000_07"
    INDEX 01 00:10:05
  TRACK 08 AUDIO
    TITLE "1Q_t_1988-2000_08"
    INDEX 01 00:10:52
  TRACK 09 AUDIO
    TITLE "1Q_t_1988-2000_09"
    INDEX 01 00:11:69
  TRACK 10 AUDIO
    TITLE "1Q_t_1988-2000_10"
    INDEX 01 00:12:02
  TRACK 11 AUDIO
    TITLE "1Q_t_1988-2000_11"
    INDEX 01 00:13:17
  TRACK 12 AUDIO
    TITLE "1Q_t_1988-2000_12"
    INDEX 01 00:13:29
  TRACK 13 AUDIO
    TITLE "1Q_t_1988-2000_13"
    INDEX 01 00:17:38
  TRACK 14 AUDIO
    TITLE "1Q_t_1988-2000_14"
    INDEX 01 00:18:08
  TRACK 15 AUDIO
    TITLE "1Q_t_1988-2000_15"
    INDEX 01 00:19:12
  TRACK 16 AUDIO
    TITLE "1Q_t_1988-2000_16"
    INDEX 01 00:19:21
  TRACK 17 AUDIO
    TITLE "1Q_t_1988-2000_17"
    INDEX 01 00:20:52
  TRACK 18 AUDIO
    TITLE "1Q_t_1988-2000_18"
    INDEX 01 00:20:60
  TRACK 19 AUDIO
    TITLE "1Q_t_1988-2000_19"
    INDEX 01 00:24:54
  TRACK 20 AUDIO
    TITLE "1Q_t_1988-2000_20"
    INDEX 01 00:25:26
  TRACK 21 AUDIO
    TITLE "1Q_t_1988-2000_21"
    INDEX 01 00:26:47
  TRACK 22 AUDIO
    TITLE "1Q_t_1988-2000_22"
    INDEX 01 00:26:55
  TRACK 23 AUDIO
    TITLE "1Q_t_1988-2000_23"
    INDEX 01 00:29:06
  TRACK 24 AUDIO
    TITLE "1Q_t_1988-2000_24"
    INDEX 01 00:29:14
  TRACK 25 AUDIO
    TITLE "1Q_t_1988-2000_25"
    INDEX 01 00:33:67
  TRACK 26 AUDIO
    TITLE "1Q_t_1988-2000_26"
    INDEX 01 00:34:43
  TRACK 27 AUDIO
    TITLE "1Q_t_1988-2000_27"
    INDEX 01 00:35:60
  TRACK 28 AUDIO
    TITLE "1Q_t_1988-2000_28"
    INDEX 01 00:35:69
  TRACK 29 AUDIO
    TITLE "1Q_t_1988-2000_29"
    INDEX 01 00:37:15
  TRACK 30 AUDIO
    TITLE "1Q_t_1988-2000_30"
    INDEX 01 00:37:23
  TRACK 31 AUDIO
    TITLE "1Q_t_1988-2000_31"
    INDEX 01 00:41:66
  TRACK 32 AUDIO
    TITLE "1Q_t_1988-2000_32"
    INDEX 01 00:42:38
  TRACK 33 AUDIO
    TITLE "1Q_t_1988-2000_33"
    INDEX 01 00:43:43
  TRACK 34 AUDIO
    TITLE "1Q_t_1988-2000_34"
    INDEX 01 00:43:53
  TRACK 35 AUDIO
    TITLE "1Q_t_1988-2000_35"
    INDEX 01 00:45:44
  TRACK 36 AUDIO
    TITLE "1Q_t_1988-2000_36"
    INDEX 01 00:45:52
  TRACK 37 AUDIO
    TITLE "1Q_t_1988-2000_37"
    INDEX 01 00:49:75
  TRACK 38 AUDIO
    TITLE "1Q_t_1988-2000_38"
    INDEX 01 00:50:45
  TRACK 39 AUDIO
    TITLE "1Q_t_1988-2000_39"
    INDEX 01 00:51:70
  TRACK 40 AUDIO
    TITLE "1Q_t_1988-2000_40"
    INDEX 01 00:52:05
  TRACK 41 AUDIO
    TITLE "1Q_t_1988-2000_41"
    INDEX 01 00:53:28
  TRACK 42 AUDIO
    TITLE "1Q_t_1988-2000_42"
    INDEX 01 00:53:38
  TRACK 43 AUDIO
    TITLE "1Q_t_1988-2000_43"
    INDEX 01 00:58:41
  TRACK 44 AUDIO
    TITLE "1Q_t_1988-2000_44"
    INDEX 01 00:59:15
  TRACK 45 AUDIO
    TITLE "1Q_t_1988-2000_45"
    INDEX 01 01:00:20
  TRACK 46 AUDIO
    TITLE "1Q_t_1988-2000_46"
    INDEX 01 01:00:34
  TRACK 47 AUDIO
    TITLE "1Q_t_1988-2000_47"
    INDEX 01 01:02:41
  TRACK 48 AUDIO
    TITLE "1Q_t_1988-2000_48"
    INDEX 01 01:02:51
  TRACK 49 AUDIO
    TITLE "1Q_t_1988-2000_49"
    INDEX 01 01:07:30
  TRACK 50 AUDIO
    TITLE "1Q_t_1988-2000_50"
    INDEX 01 01:08:02
  TRACK 51 AUDIO
    TITLE "1Q_t_1988-2000_51"
    INDEX 01 01:09:19
  TRACK 52 AUDIO
    TITLE "1Q_t_1988-2000_52"
    INDEX 01 01:09:29
  TRACK 53 AUDIO
    TITLE "1Q_t_1988-2000_53"
    INDEX 01 01:11:30
  TRACK 54 AUDIO
    TITLE "1Q_t_1988-2000_54"
    INDEX 01 01:11:38
  TRACK 55 AUDIO
    TITLE "1Q_t_1988-2000_55"
    INDEX 01 01:17:23
  TRACK 56 AUDIO
    TITLE "1Q_t_1988-2000_56"
    INDEX 01 01:17:70
  TRACK 57 AUDIO
    TITLE "1Q_t_1988-2000_57"
    INDEX 01 01:18:73
  TRACK 58 AUDIO
    TITLE "1Q_t_1988-2000_58"
    INDEX 01 01:19:12
  TRACK 59 AUDIO
    TITLE "1Q_t_1988-2000_59"
    INDEX 01 01:20:17
  TRACK 60 AUDIO
    TITLE "1Q_t_1988-2000_60"
    INDEX 01 01:20:25
  TRACK 61 AUDIO
    TITLE "1Q_t_1988-2000_61"
    INDEX 01 01:24:54
  TRACK 62 AUDIO
    TITLE "1Q_t_1988-2000_62"
    INDEX 01 01:25:32
  TRACK 63 AUDIO
    TITLE "1Q_t_1988-2000_63"
    INDEX 01 01:26:57
  TRACK 64 AUDIO
    TITLE "1Q_t_1988-2000_64"
    INDEX 01 01:26:61
  TRACK 65 AUDIO
    TITLE "1Q_t_1988-2000_65"
    INDEX 01 01:28:03
  TRACK 66 AUDIO
    TITLE "1Q_t_1988-2000_66"
    INDEX 01 01:28:11
  TRACK 67 AUDIO
    TITLE "1Q_t_1988-2000_67"
    INDEX 01 01:32:40
  TRACK 68 AUDIO
    TITLE "1Q_t_1988-2000_68"
    INDEX 01 01:33:12
  TRACK 69 AUDIO
    TITLE "1Q_t_1988-2000_69"
    INDEX 01 01:34:19
  TRACK 70 AUDIO
    TITLE "1Q_t_1988-2000_70"
    INDEX 01 01:34:29
  TRACK 71 AUDIO
    TITLE "1Q_t_1988-2000_71"
    INDEX 01 01:35:64
  TRACK 72 AUDIO
    TITLE "1Q_t_1988-2000_72"
    INDEX 01 01:36:01
  TRACK 73 AUDIO
    TITLE "1Q_t_1988-2000_73"
    INDEX 01 01:40:51
  TRACK 74 AUDIO
    TITLE "1Q_t_1988-2000_74"
    INDEX 01 01:41:25
  TRACK 75 AUDIO
    TITLE "1Q_t_1988-2000_75"
    INDEX 01 01:42:31
  TRACK 76 AUDIO
    TITLE "1Q_t_1988-2000_76"
    INDEX 01 01:43:03
  TRACK 77 AUDIO
    TITLE "1Q_t_1988-2000_77"
    INDEX 01 01:44:31
  TRACK 78 AUDIO
    TITLE "1Q_t_1988-2000_78"
    INDEX 01 01:44:43
  TRACK 79 AUDIO
    TITLE "1Q_t_1988-2000_79"
    INDEX 01 01:45:62
  TRACK 80 AUDIO
    TITLE "1Q_t_1988-2000_80"
    INDEX 01 01:45:72
  TRACK 81 AUDIO
    TITLE "1Q_t_1988-2000_81"
    INDEX 01 01:49:74
